<?xml version="1.0"?>
<svg xmlns="http://www.w3.org/2000/svg" id="Layer_1" enable-background="new 0 0 256 256" height="512px" viewBox="0 0 256 256" width="512px" class=""><g><path d="m160.612 157.618c-1.819-1.473-2.928-3.647-2.928-5.987v-108.306c0-14.158-11.1-26.125-25.252-26.513-14.683-.403-26.713 11.38-26.713 25.973v108.807c0 2.365-1.12 4.56-2.957 6.049-10.583 8.586-17.278 21.776-17.023 36.525.419 24.21 19.974 44.201 44.171 45.12 26.204.995 47.761-19.953 47.761-45.935 0-14.432-6.655-27.306-17.059-35.733z" fill="#fce8cb" data-original="#FCE8CB" class=""/><path d="m161.556 156.452c-1.507-1.22-2.372-2.978-2.372-4.821v-108.306c0-15.042-11.982-27.608-26.711-28.013-7.489-.196-14.572 2.555-19.935 7.773-5.365 5.22-8.319 12.216-8.319 19.699v87.946c0 .829.671 1.5 1.5 1.5s1.5-.671 1.5-1.5v-87.945c0-6.667 2.632-12.899 7.412-17.549 4.777-4.648 11.075-7.105 17.761-6.924 13.12.36 23.794 11.581 23.794 25.014v108.304c0 2.753 1.27 5.36 3.484 7.153 10.488 8.495 16.502 21.094 16.502 34.567 0 12.198-4.841 23.577-13.631 32.04-8.785 8.458-20.344 12.87-32.572 12.397-23.552-.895-42.32-20.067-42.728-43.647-.239-13.771 5.764-26.65 16.467-35.334 2.232-1.81 3.512-4.439 3.512-7.214v-6.655c0-.829-.671-1.5-1.5-1.5s-1.5.671-1.5 1.5v6.655c0 1.866-.875 3.646-2.401 4.884-11.425 9.269-17.832 23.016-17.578 37.716.436 25.172 20.472 45.638 45.614 46.594.625.023 1.246.036 1.868.036 12.348-.001 23.97-4.673 32.899-13.27 9.383-9.033 14.551-21.179 14.551-34.201-.003-14.383-6.423-27.831-17.617-36.899z" fill="#3a312a" data-original="#3A312A"/><path d="m144.637 169.291c-3.601-1.939-5.94-5.599-5.94-9.688v-115.36c0-3.83-2.952-7.17-6.78-7.285-3.962-.119-7.211 3.057-7.211 6.992v115.652c0 4.05-2.268 7.73-5.842 9.635-9.302 4.962-15.396 15.145-14.364 26.638 1.19 13.259 12.062 23.851 25.345 24.729 15.926 1.052 29.171-11.554 29.171-27.253.001-10.406-5.819-19.45-14.379-24.06z" fill="#f16c7a" data-original="#F16C7A" class="active-path" data-old_color="#f16c7a" style="fill:#0BC62F"/><g fill="#3a312a"><path d="m145.349 167.97c-3.178-1.711-5.152-4.917-5.152-8.367v-115.36c0-4.707-3.694-8.647-8.235-8.784-2.322-.062-4.513.782-6.176 2.395-1.663 1.614-2.579 3.779-2.579 6.096v6.633c0 .829.671 1.5 1.5 1.5s1.5-.671 1.5-1.5v-6.633c0-1.499.593-2.899 1.668-3.943 1.076-1.044 2.495-1.595 3.997-1.549 2.936.088 5.325 2.684 5.325 5.785v115.359c0 4.555 2.579 8.773 6.729 11.009 8.383 4.515 13.591 13.229 13.591 22.739 0 7.22-2.904 13.914-8.177 18.85-5.269 4.932-12.164 7.382-19.395 6.907-12.532-.829-22.829-10.874-23.95-23.366-.934-10.399 4.396-20.283 13.576-25.18 4.093-2.182 6.636-6.381 6.636-10.959v-94.852c0-.829-.671-1.5-1.5-1.5s-1.5.671-1.5 1.5v94.853c0 3.467-1.934 6.652-5.048 8.312-10.246 5.465-16.194 16.494-15.152 28.096 1.252 13.95 12.748 25.166 26.74 26.091.664.044 1.323.066 1.98.066 7.344 0 14.265-2.722 19.663-7.775 5.801-5.43 9.127-13.099 9.127-21.041 0-10.617-5.812-20.343-15.168-25.382z" data-original="#3A312A"/><path d="m88.844 23.445h-28.174c-.829 0-1.5.671-1.5 1.5s.671 1.5 1.5 1.5h28.173c.829 0 1.5-.671 1.5-1.5.001-.829-.671-1.5-1.499-1.5z" data-original="#3A312A"/><path d="m88.844 45.139h-17.346c-.829 0-1.5.671-1.5 1.5s.671 1.5 1.5 1.5h17.346c.829 0 1.5-.671 1.5-1.5s-.672-1.5-1.5-1.5z" data-original="#3A312A"/><path d="m88.844 66.833h-28.174c-.829 0-1.5.671-1.5 1.5s.671 1.5 1.5 1.5h28.173c.829 0 1.5-.671 1.5-1.5.001-.829-.671-1.5-1.499-1.5z" data-original="#3A312A"/><path d="m88.844 88.527h-17.346c-.829 0-1.5.671-1.5 1.5s.671 1.5 1.5 1.5h17.346c.829 0 1.5-.671 1.5-1.5s-.672-1.5-1.5-1.5z" data-original="#3A312A"/><path d="m88.844 110.221h-28.174c-.829 0-1.5.671-1.5 1.5s.671 1.5 1.5 1.5h28.173c.829 0 1.5-.671 1.5-1.5s-.671-1.5-1.499-1.5z" data-original="#3A312A"/><path d="m88.844 131.915h-17.346c-.829 0-1.5.671-1.5 1.5s.671 1.5 1.5 1.5h17.346c.829 0 1.5-.671 1.5-1.5s-.672-1.5-1.5-1.5z" data-original="#3A312A"/><path d="m88.844 153.608h-28.174c-.829 0-1.5.671-1.5 1.5s.671 1.5 1.5 1.5h28.173c.829 0 1.5-.671 1.5-1.5s-.671-1.5-1.499-1.5z" data-original="#3A312A"/></g><path d="m47.937 26.294c-.974 11.564-13.025 13.389-13.025 13.389 10.347.487 12.925 14.059 12.925 14.059.221-9.677 13.321-14.202 13.321-14.202-9.813-.586-13.221-13.246-13.221-13.246z" fill="#d7e057" data-original="#D7E057"/><path d="m61.248 38.043c-8.604-.514-11.831-12.024-11.863-12.14-.19-.702-.849-1.16-1.583-1.102-.725.066-1.298.642-1.359 1.367-.86 10.215-11.313 11.963-11.754 12.032-.763.115-1.313.79-1.273 1.56s.657 1.384 1.427 1.421c9.027.426 11.498 12.719 11.522 12.843.137.711.759 1.217 1.472 1.217.042 0 .084-.002.126-.005.764-.064 1.357-.693 1.375-1.459.194-8.508 12.191-12.777 12.312-12.819.675-.235 1.092-.915.994-1.623s-.682-1.249-1.396-1.292zm-13.565 10.346c-1.357-3.13-3.709-6.907-7.587-8.876 2.931-1.405 6.409-3.913 8.202-8.273 1.551 3.071 4.2 6.88 8.334 8.722-3.008 1.64-6.923 4.406-8.949 8.427z" fill="#3a312a" data-original="#3A312A"/><path d="m26.238 43.275c-.689 8.179-9.212 9.471-9.212 9.471 7.318.344 9.142 9.944 9.142 9.944.156-6.845 9.422-10.046 9.422-10.046-6.941-.415-9.352-9.369-9.352-9.369z" fill="#d7e057" data-original="#D7E057"/><path d="m35.68 51.146c-5.766-.345-7.972-8.185-7.994-8.264-.19-.702-.85-1.167-1.582-1.102-.726.065-1.299.642-1.36 1.368-.579 6.871-7.647 8.067-7.942 8.114-.763.115-1.313.79-1.273 1.56s.657 1.384 1.428 1.421c6.035.284 7.723 8.644 7.739 8.726.135.713.759 1.22 1.472 1.22.042 0 .083-.001.125-.005.765-.063 1.358-.694 1.376-1.461.13-5.709 8.332-8.634 8.413-8.662.677-.234 1.094-.913.996-1.622-.099-.708-.684-1.249-1.398-1.293zm-9.585 6.796c-.924-1.886-2.34-3.947-4.447-5.28 1.856-1.041 3.697-2.63 4.871-4.917 1.057 1.874 2.654 3.955 4.941 5.224-1.85 1.101-3.989 2.74-5.365 4.973z" fill="#3a312a" data-original="#3A312A"/><path d="m26.238 16.617c-.689 8.179-9.212 9.471-9.212 9.471 7.318.344 9.142 9.944 9.142 9.944.156-6.845 9.422-10.045 9.422-10.045-6.941-.416-9.352-9.37-9.352-9.37z" fill="#d7e057" data-original="#D7E057"/><path d="m35.68 24.489c-5.767-.345-7.973-8.186-7.994-8.265-.19-.702-.85-1.168-1.582-1.102-.726.065-1.299.642-1.36 1.368-.579 6.871-7.647 8.067-7.942 8.114-.763.115-1.313.79-1.273 1.56s.657 1.384 1.428 1.421c6.035.284 7.723 8.644 7.739 8.726.135.713.759 1.22 1.472 1.22.042 0 .083-.001.125-.005.765-.063 1.358-.694 1.376-1.461.13-5.71 8.332-8.634 8.413-8.662.676-.234 1.094-.913.996-1.622-.099-.707-.684-1.249-1.398-1.292zm-9.585 6.795c-.924-1.885-2.34-3.947-4.447-5.28 1.856-1.041 3.697-2.63 4.871-4.916 1.057 1.874 2.655 3.954 4.941 5.224-1.85 1.101-3.989 2.74-5.365 4.972z" fill="#3a312a" data-original="#3A312A"/><path d="m224.076 70.838c-.751 3.484-1.961 6.141-3.628 7.969-1.667 1.83-4.129 2.744-7.387 2.744-3.358 0-5.964-1.132-7.819-3.397-1.854-2.265-2.782-6.452-2.782-12.56 0-4.93.777-8.547 2.331-10.851 2.055-3.104 5.012-4.656 8.872-4.656 1.704 0 3.245.351 4.624 1.053 1.378.702 2.543 1.704 3.496 3.007.576.777 1.128 2.005 1.654 3.684l15.036-3.346c-1.93-5.813-4.881-10.124-8.852-12.931-3.972-2.806-9.43-4.21-16.371-4.21-8.871 0-15.731 2.448-20.581 7.344-4.849 4.896-7.273 11.902-7.273 21.018 0 6.837 1.378 12.447 4.135 16.83 2.756 4.383 6.033 7.444 9.83 9.185 3.797 1.74 8.689 2.611 14.679 2.611 4.936 0 9.003-.714 12.198-2.143 3.195-1.428 5.87-3.546 8.026-6.353 2.155-2.807 3.733-6.302 4.736-10.488z" fill="#87796f" data-original="#87796F" class=""/><path d="m239.434 73.914-14.924-4.511c-.401-.121-.835-.069-1.195.144-.361.213-.617.567-.705.976-.691 3.206-1.792 5.653-3.27 7.275-1.382 1.517-3.435 2.254-6.278 2.254-2.912 0-5.089-.932-6.658-2.848-1.621-1.979-2.442-5.885-2.442-11.609 0-4.603.698-7.972 2.081-10.022 1.775-2.681 4.268-3.984 7.621-3.984 1.457 0 2.784.299 3.943.89 1.16.59 2.158 1.45 2.972 2.564.326.439.838 1.358 1.428 3.239.232.744.996 1.184 1.757 1.016l15.036-3.346c.414-.092.77-.355.979-.725.209-.369.252-.81.119-1.212-2.024-6.097-5.191-10.701-9.411-13.684-4.213-2.976-10.012-4.485-17.237-4.485-9.245 0-16.528 2.621-21.647 7.789-5.114 5.164-7.708 12.591-7.708 22.074 0 7.093 1.469 13.024 4.365 17.628 2.901 4.614 6.425 7.894 10.475 9.75 3.977 1.823 9.126 2.747 15.304 2.747 5.126 0 9.436-.765 12.81-2.273 3.409-1.524 6.304-3.814 8.604-6.809 2.273-2.961 3.957-6.68 5.005-11.052.186-.773-.264-1.556-1.024-1.786zm-6.36 11.01c-1.993 2.594-4.499 4.578-7.449 5.897-2.986 1.335-6.885 2.012-11.586 2.012-5.743 0-10.472-.833-14.054-2.475-3.51-1.608-6.6-4.508-9.186-8.62-2.591-4.119-3.904-9.512-3.904-16.031 0-8.664 2.301-15.38 6.839-19.962 4.534-4.579 11.1-6.9 19.515-6.9 6.593 0 11.81 1.324 15.505 3.935 3.325 2.35 5.922 5.915 7.733 10.611l-12.066 2.685c-.449-1.202-.921-2.13-1.428-2.813-1.088-1.489-2.443-2.652-4.026-3.459-1.586-.807-3.37-1.216-5.304-1.216-4.376 0-7.782 1.792-10.115 5.317-1.741 2.581-2.587 6.404-2.587 11.689 0 6.525 1.021 10.944 3.121 13.51 2.145 2.619 5.165 3.947 8.979 3.947 3.682 0 6.54-1.088 8.496-3.234 1.572-1.725 2.779-4.104 3.599-7.086l12.028 3.636c-.951 3.366-2.331 6.239-4.11 8.557z" fill="#3a312a" data-original="#3A312A"/><path d="m188.962 20.943c-2.262-2.567-5.607-3.852-10.035-3.852-3.872 0-6.947 1.093-9.223 3.279s-3.414 4.965-3.414 8.338c0 3.622 1.346 6.551 4.039 8.785 2.193 1.805 5.066 2.706 8.619 2.706 3.983 0 7.103-1.086 9.358-3.258s3.383-4.958 3.383-8.359c.001-3.024-.908-5.571-2.727-7.639zm-6.964 12.137c-.784.93-1.787 1.395-3.008 1.395-1.207 0-2.21-.472-3.008-1.416s-1.197-2.401-1.197-4.372c0-1.943.402-3.39 1.208-4.341.805-.95 1.825-1.426 3.06-1.426 1.166 0 2.145.468 2.936 1.405s1.187 2.363 1.187 4.278c-.001 2.056-.393 3.547-1.178 4.477z" fill="#87796f" data-original="#87796F" class=""/><path d="m179.053 21.421c-1.667 0-3.121.676-4.206 1.956-1.037 1.225-1.563 3.012-1.563 5.31 0 2.359.508 4.106 1.552 5.34 1.077 1.274 2.513 1.947 4.154 1.947 1.655 0 3.092-.667 4.155-1.928 1.029-1.221 1.53-3.001 1.53-5.443 0-2.271-.518-4.036-1.541-5.246-1.069-1.266-2.481-1.936-4.081-1.936zm1.799 10.692c-.496.588-1.087.862-1.861.862-.761 0-1.353-.281-1.863-.884-.551-.651-.842-1.829-.842-3.403 0-1.569.287-2.704.852-3.371.518-.611 1.126-.896 1.916-.896.718 0 1.287.277 1.79.873.544.645.833 1.79.833 3.31-.002 1.657-.287 2.871-.825 3.509zm9.236-12.162c-2.549-2.893-6.304-4.36-11.16-4.36-4.255 0-7.707 1.244-10.262 3.697-2.571 2.469-3.875 5.638-3.875 9.42 0 4.073 1.541 7.417 4.585 9.943 2.458 2.023 5.678 3.048 9.572 3.048 4.367 0 7.865-1.237 10.398-3.677 2.55-2.456 3.843-5.632 3.843-9.439.001-3.386-1.043-6.29-3.101-8.632zm-2.822 15.911c-1.983 1.91-4.704 2.838-8.317 2.838-3.18 0-5.759-.795-7.661-2.361-2.353-1.952-3.497-4.448-3.497-7.631 0-2.975.966-5.348 2.953-7.256 2.004-1.925 4.681-2.861 8.184-2.861 4.013 0 6.927 1.094 8.908 3.342 1.584 1.802 2.354 3.977 2.354 6.65 0 3.003-.957 5.384-2.924 7.279z" fill="#3a312a" data-original="#3A312A"/><path d="m159.67 158.78c-2.22-1.79-3.49-4.4-3.49-7.15v-108.3c0-13.44-10.67-24.66-23.79-25.02-.23 0-.46-.01-.69-.01-2.79 0-5.51.46-8.08 1.36 9.59 3.4 16.56 12.81 16.56 23.67v.33c.01.19.02.39.02.58v108c.18 2.53 1.42 4.88 3.47 6.54 8.56 6.94 14.14 16.61 15.9 27.26.63 2.35.95 4.8.95 7.31 0 2.45-.32 4.87-.93 7.2-1.51 9.44-6.02 18.07-13.05 24.84-6.41 6.17-14.29 10.18-22.83 11.72 2.04.37 4.13.6 6.26.68 12.22.47 23.78-3.94 32.57-12.4s13.63-19.84 13.63-32.04c0-13.47-6.01-26.07-16.5-34.57z" fill="#decaad" data-original="#DECAAD" class=""/></g> </svg>
